<svg width="1685" height="2045" viewBox="0 0 1685 2045" fill="none" xmlns="http://www.w3.org/2000/svg">
<path d="M644.625 0.49196C642.086 0.46071 639.516 0.472428 636.937 0.570085C618.195 1.27321 598.828 5.80055 582.137 17.531C528.726 55.0623 582.137 187.883 582.137 187.883C582.137 187.883 591.535 260.621 665.027 352.492C738.527 444.351 899.008 578.371 899.008 578.371L892.508 595.691C892.508 595.691 813.105 557.441 769.797 581.98C726.496 606.523 550.695 751.613 550.695 751.613C550.695 751.613 378.598 758.094 338.172 805.73C297.754 853.371 287.344 902.684 280.199 936.363C273.051 970.051 264.547 1023.71 264.547 1023.71C264.547 1023.71 147.621 1094.45 128.855 1139.2C110.086 1183.95 110.809 1276.34 131.016 1343.46C151.227 1410.59 175.047 1448.85 175.047 1448.85L161.332 1528.97C161.332 1528.97 -5.62506 1639.69 0.499947 1796.88C6.62495 1954.08 53.582 2042 53.582 2042H959.008C959.008 2042 1585.76 1614.16 1612.3 1563.12C1638.84 1512.08 1689.87 1434.5 1683.75 1371.21C1677.62 1307.93 1504.1 909.832 1481.64 766.922C1459.18 624.023 1446.49 582.703 1389.83 538.312C1333.17 493.922 1333.53 490.312 1333.53 490.312L1362.4 407.312C1362.4 407.312 1452.62 237.683 1438.18 116.422C1423.75 -4.84007 1309.7 4.54274 1263.51 39.1834C1217.32 73.8318 1207.21 86.8201 1207.21 86.8201C1207.21 86.8201 1148.02 94.0427 1104.71 138.793C1061.41 183.543 1042.65 219.633 1042.65 219.633C1042.65 219.633 883.848 65.1716 800.117 40.6326L716.398 16.0935C716.398 16.0935 682.809 1.10134 644.625 0.49196Z" fill="black"/>
<path d="M657.067 41.0043C643.629 41.0355 629.2 43.6254 618.727 52.223C592.95 73.4027 606.727 130.055 606.727 130.055C606.727 130.055 615.657 95.6058 635.059 74.6839C654.45 53.7543 694.266 46.3558 694.266 46.3558C694.266 46.3558 676.719 40.9535 657.067 41.0043ZM1333.93 65.184C1327.23 65.2152 1320.29 66.0941 1313.18 67.8129C1262.66 80.0941 1227.28 130.614 1219.34 148.653C1211.4 166.703 1170.99 282.914 1175.32 298.793C1175.32 298.793 1197.69 329.114 1257.6 353.653C1317.5 378.196 1337.72 381.805 1337.72 381.805C1337.72 381.805 1409.18 217.953 1407.74 152.274C1406.5 95.8246 1374.86 64.9652 1333.93 65.184Z" fill="#FFB3B3"/>
<path d="M709.739 66.2034C643.587 66.055 614.317 117.446 631.798 201.356C649.848 287.965 934.958 531.215 934.958 531.215L1030.23 293.746C1030.23 293.746 963.11 217.953 882.266 151.555C801.427 85.1449 786.989 69.9964 716.259 66.3831C714.048 66.2659 711.868 66.2152 709.739 66.2034ZM1199.55 148.946C1199.55 148.946 1142.38 161.196 1103.59 234.684C1064.8 308.184 878.657 796.836 844.009 848.793C809.368 900.766 436.009 1211.56 348.219 1317.72C260.434 1423.88 227.774 1502.48 221.649 1606.6C215.524 1710.72 257.196 1988.52 257.196 1988.52C257.196 1988.52 224.716 1930.04 201.618 1848.48C178.52 1766.92 168.411 1633.39 168.411 1633.39C168.411 1633.39 161.919 1634.83 110.669 1707.73C59.4226 1780.63 143.048 2044.65 143.048 2044.65H839.208C839.208 2044.65 865.759 2002.66 933.13 1962.85C1000.5 1923.04 1454.73 1608.64 1513.94 1555.57C1573.14 1502.48 1596.12 1445 1609.12 1394.48C1622.11 1343.95 1542.71 1199.59 1474.86 996.043C1407.01 792.504 1396.56 675.664 1387.37 656.266C1378.18 636.875 1307.75 555.215 1307.75 555.215C1307.75 555.215 1301.62 576.645 1288.35 617.473C1275.08 658.305 1244.25 769.403 1244.25 769.403C1244.25 769.403 1263.38 770.125 1277.45 769.043C1291.52 767.965 1312.1 762.543 1312.1 762.543C1312.1 762.543 1305.24 772.293 1289.36 785.285C1273.48 798.274 1239.2 811.996 1239.2 811.996C1239.2 811.996 1232.34 831.473 1226.56 903.653C1220.79 975.836 1219.96 1120.72 1219.96 1120.72C1219.96 1120.72 1258.75 1159.51 1296.52 1195.23C1334.29 1230.96 1382.26 1295.27 1382.26 1295.27C1382.26 1295.27 1341.43 1271.79 1318.98 1248.31C1296.52 1224.84 1224.04 1168.69 1224.04 1168.69C1224.04 1168.69 1219.96 1198.29 1229.15 1233C1238.33 1267.71 1296.52 1393.26 1296.52 1393.26C1296.52 1393.26 1233.23 1313.64 1204.65 1243.21C1176.07 1172.78 1184.23 1056.4 1189.34 918.606C1194.44 780.805 1325.1 401.075 1325.1 401.075C1325.1 401.075 1301.62 393.926 1255.69 378.614C1209.75 363.305 1151.57 318.395 1149.53 303.086C1147.48 287.766 1199.55 148.946 1199.55 148.946ZM818.719 633.575C818.438 633.586 818.208 633.625 818.028 633.715C812.247 635.875 558.177 830.043 548.798 846.645C539.419 863.246 535.079 895.004 533.637 909.446C532.2 923.875 526.419 1053.07 528.95 1056.32C531.469 1059.57 544.469 1048.38 544.469 1048.38L703.977 918.825L694.598 880.203C694.598 880.203 702.54 886.344 710.118 892.844C717.7 899.336 720.587 903.664 720.587 903.664C720.587 903.664 797.88 837.453 807.059 821.125C816.247 804.793 881.427 673.016 882.266 653.934C882.266 653.934 827.399 632.934 818.719 633.586V633.575ZM515.63 821.625C515.63 821.625 465.61 826.735 446.219 829.793C426.817 832.856 397.727 837.965 374.259 878.285C350.778 918.606 330.868 1053.34 322.192 1117.14C313.516 1180.94 324.739 1239.63 324.739 1239.63C324.739 1239.63 326.786 1236.57 342.098 1222.29C357.407 1208 473.778 1105.91 473.778 1105.91C473.778 1105.91 475.899 1073.29 473.719 1052.34C471.548 1031.41 478.868 914.516 483.969 877.766C489.067 841.024 515.618 821.625 515.618 821.625H515.63ZM275.747 1109.5C275.747 1109.5 212.462 1147.77 196.641 1206.46C180.817 1265.15 224.196 1366.72 224.196 1366.72C224.196 1366.72 227.77 1356 242.571 1333.04C257.372 1310.07 285.442 1278.43 285.442 1278.43C285.442 1278.43 274.219 1230.96 271.157 1206.46C268.094 1181.96 275.747 1109.5 275.747 1109.5Z" fill="#EFD2BF"/>
</svg>
